<svg width="44" height="44" viewBox="0 0 44 44" fill="none" xmlns="http://www.w3.org/2000/svg">
<g clip-path="url(#clip0)">
<path d="M2.75 2.99383C-0.707662 6.58533 4.18723e-06 10.4005 4.18723e-06 21.9908C4.18723e-06 31.6158 -1.67933 41.2647 7.10967 43.5362C9.85417 44.242 34.1715 44.242 36.9123 43.5325C40.5717 42.5883 43.549 39.6202 43.956 34.4447C44.0128 33.7223 44.0128 10.2722 43.9542 9.53516C43.5215 4.02233 40.128 0.845165 35.6565 0.201665C34.6317 0.0531653 34.4263 0.00916526 29.1683 -1.41561e-06C10.5178 0.00916526 6.4295 -0.821335 2.75 2.99383Z" fill="#FAFAFA"/>
<path d="M21.9963 5.75485C15.3395 5.75485 9.01817 5.16268 6.60367 11.3593C5.60633 13.9187 5.75117 17.2425 5.75117 22.0018C5.75117 26.1782 5.61734 30.1033 6.60367 32.6425C9.01267 38.8428 15.3853 38.2488 21.9927 38.2488C28.3672 38.2488 34.9397 38.9125 37.3835 32.6425C38.3827 30.0575 38.236 26.7832 38.236 22.0018C38.236 15.6548 38.5862 11.5573 35.508 8.48101C32.3913 5.36434 28.1765 5.75485 21.989 5.75485H21.9963ZM20.5407 8.68268C34.4263 8.66068 36.1937 7.11701 35.2183 28.5615C34.8718 36.146 29.0968 35.3137 21.9982 35.3137C9.05483 35.3137 8.68267 34.9433 8.68267 21.9945C8.68267 8.89535 9.70934 8.69001 20.5407 8.67901V8.68268ZM30.668 11.3795C29.5918 11.3795 28.7192 12.2522 28.7192 13.3283C28.7192 14.4045 29.5918 15.2772 30.668 15.2772C31.7442 15.2772 32.6168 14.4045 32.6168 13.3283C32.6168 12.2522 31.7442 11.3795 30.668 11.3795ZM21.9963 13.6583C17.3892 13.6583 13.6547 17.3947 13.6547 22.0018C13.6547 26.609 17.3892 30.3435 21.9963 30.3435C26.6035 30.3435 30.3362 26.609 30.3362 22.0018C30.3362 17.3947 26.6035 13.6583 21.9963 13.6583ZM21.9963 16.5862C29.1555 16.5862 29.1647 27.4175 21.9963 27.4175C14.839 27.4175 14.828 16.5862 21.9963 16.5862Z" fill="#212121"/>
</g>
<defs>
<clipPath id="clip0">
<rect width="44" height="44" fill="white"/>
</clipPath>
</defs>
</svg>
