<svg width="44" height="44" viewBox="0 0 44 44" fill="none" xmlns="http://www.w3.org/2000/svg">
<path d="M39.6 0H4.4C1.98 0 0 1.98 0 4.4V39.6C0 42.02 1.98 44 4.4 44H39.6C42.02 44 44 42.02 44 39.6V4.4C44 1.98 42.02 0 39.6 0ZM13.2 37.4H6.6V17.6H13.2V37.4ZM9.9 13.86C7.7 13.86 5.94 12.1 5.94 9.9C5.94 7.7 7.7 5.94 9.9 5.94C12.1 5.94 13.86 7.7 13.86 9.9C13.86 12.1 12.1 13.86 9.9 13.86ZM37.4 37.4H30.8V25.74C30.8 23.9801 29.26 22.44 27.5 22.44C25.74 22.44 24.2 23.9801 24.2 25.74V37.4H17.6V17.6H24.2V20.24C25.3 18.48 27.72 17.16 29.7 17.16C33.88 17.16 37.4 20.68 37.4 24.86V37.4Z" fill="#FAFAFA"/>
</svg>
