<svg width="1008" height="1008" viewBox="0 0 1008 1008" fill="none" xmlns="http://www.w3.org/2000/svg">
<rect width="1008" height="1008" rx="176.842" fill="#212121"/>
<path d="M134.128 724C134.128 693.558 137.308 667.887 143.669 646.986C150.484 626.086 161.389 607.912 176.383 592.464C191.831 576.561 212.05 561.795 237.039 548.164C261.575 534.987 281.112 524.31 295.652 516.132C310.191 507.953 320.868 501.592 327.684 497.049C334.953 492.051 339.497 487.962 341.314 484.781C343.586 481.146 344.722 477.284 344.722 473.195C344.722 461.836 341.087 453.43 333.818 447.978C326.548 442.526 316.552 439.8 303.83 439.8C275.66 439.8 247.49 456.156 219.32 488.87L137.535 392.774C149.349 379.597 165.024 368.238 184.561 358.697C204.553 349.155 226.589 341.659 250.67 336.206C275.205 330.754 300.422 328.028 326.321 328.028C378.117 328.028 417.646 338.932 444.908 360.741C472.169 382.096 485.8 412.084 485.8 450.704C485.8 478.874 478.985 501.365 465.354 518.176C452.178 534.533 435.821 549.3 416.283 562.476C402.198 569.746 387.432 577.243 371.984 584.967C356.535 592.236 341.087 599.961 325.639 608.139H493.297V724H134.128ZM877.433 608.139V724H561.882V608.139H658.66V472.513C653.207 479.329 643.893 486.371 630.717 493.641C617.995 500.456 604.137 506.363 589.143 511.361C574.149 515.904 560.746 518.176 548.933 518.176V399.589C555.294 399.589 563.926 397.317 574.831 392.774C586.19 388.23 597.776 382.551 609.589 375.735C621.402 368.466 631.853 361.196 640.94 353.926C650.027 346.656 655.934 340.295 658.66 334.843H790.878V608.139H877.433Z" fill="#FAFAFA"/>
</svg>
