<svg width="3228" height="1008" viewBox="0 0 3228 1008" fill="current" xmlns="http://www.w3.org/2000/svg">
<rect width="1008" height="1008" rx="176.842" fill="current"/>
<path d="M134.128 724C134.128 693.558 137.308 667.887 143.669 646.986C150.484 626.086 161.389 607.912 176.383 592.464C191.831 576.561 212.05 561.795 237.039 548.164C261.575 534.987 281.112 524.31 295.652 516.132C310.191 507.953 320.868 501.592 327.684 497.049C334.953 492.051 339.497 487.962 341.314 484.781C343.586 481.146 344.722 477.284 344.722 473.195C344.722 461.836 341.087 453.43 333.818 447.978C326.548 442.526 316.552 439.8 303.83 439.8C275.66 439.8 247.49 456.156 219.32 488.87L137.535 392.774C149.349 379.597 165.024 368.238 184.561 358.697C204.553 349.155 226.589 341.659 250.67 336.206C275.205 330.754 300.422 328.028 326.321 328.028C378.117 328.028 417.646 338.932 444.908 360.741C472.169 382.096 485.8 412.084 485.8 450.704C485.8 478.874 478.985 501.365 465.354 518.176C452.178 534.533 435.821 549.3 416.283 562.476C402.198 569.746 387.432 577.243 371.984 584.967C356.535 592.236 341.087 599.961 325.639 608.139H493.297V724H134.128ZM877.433 608.139V724H561.882V608.139H658.66V472.513C653.207 479.329 643.893 486.371 630.717 493.641C617.995 500.456 604.137 506.363 589.143 511.361C574.149 515.904 560.746 518.176 548.933 518.176V399.589C555.294 399.589 563.926 397.317 574.831 392.774C586.19 388.23 597.776 382.551 609.589 375.735C621.402 368.466 631.853 361.196 640.94 353.926C650.027 346.656 655.934 340.295 658.66 334.843H790.878V608.139H877.433Z" fill="#fafafa"/>
<path d="M1276.52 730.815C1245.17 730.815 1214.27 725.817 1183.83 715.822C1153.84 705.371 1128.4 690.378 1107.5 670.84L1151.8 591.101C1174.06 605.64 1195.41 616.999 1215.86 625.177C1236.76 633.356 1255.62 637.445 1272.43 637.445C1291.06 637.445 1300.37 631.993 1300.37 621.088C1300.37 615.181 1296.51 610.411 1288.79 606.776C1281.52 603.141 1269.7 598.825 1253.35 593.827C1225.18 583.831 1201.55 574.517 1182.47 565.884C1163.84 557.251 1149.75 546.801 1140.21 534.533C1131.12 521.811 1126.58 505 1126.58 484.099C1126.58 447.297 1140.21 417.082 1167.47 393.455C1194.73 369.829 1232.45 358.015 1280.61 358.015C1304.69 358.015 1328.77 361.877 1352.85 369.601C1377.38 376.871 1401.01 390.275 1423.73 409.812L1374.66 488.87C1351.94 474.785 1332.63 464.789 1316.73 458.883C1301.28 452.976 1287.42 450.023 1275.15 450.023C1256.07 450.023 1246.53 456.384 1246.53 469.106C1246.53 475.921 1250.17 481.146 1257.43 484.781C1264.7 488.416 1276.29 492.505 1292.19 497.049C1323.09 506.136 1348.31 515.45 1367.84 524.992C1387.38 534.079 1401.69 545.21 1410.78 558.387C1420.32 571.563 1425.09 588.829 1425.09 610.184C1425.09 647.895 1411.69 677.428 1384.88 698.783C1358.53 720.138 1322.41 730.815 1276.52 730.815ZM1721.64 704.235C1703.47 711.96 1683.93 718.548 1663.03 724C1642.58 728.998 1622.36 731.497 1602.37 731.497C1582.83 731.497 1564.89 728.316 1548.53 721.955C1532.17 715.14 1519 704.235 1509 689.242C1499.46 673.794 1494.69 653.12 1494.69 627.222V462.972H1450.39V365.512H1494.69V253.059H1624.18V365.512H1694.38V462.972H1624.18V581.559C1624.18 593.372 1626.68 601.778 1631.68 606.776C1636.68 611.319 1643.49 613.591 1652.12 613.591C1658.48 613.591 1665.75 612.455 1673.93 610.184C1682.11 607.912 1690.29 605.186 1698.47 602.005L1721.64 704.235ZM1754.93 601.324V365.512H1884.43V572.018C1884.43 587.466 1887.83 599.733 1894.65 608.82C1901.92 617.453 1911.69 621.77 1923.96 621.77C1933.95 621.77 1944.17 619.498 1954.62 614.954C1965.07 610.411 1975.52 600.415 1985.97 584.967V365.512H2115.47V580.878C2115.47 593.145 2117.28 601.778 2120.92 606.776C2124.55 611.319 2130.91 614.046 2140 614.954V724C2117.74 728.544 2099.56 730.815 2085.48 730.815C2041.41 730.815 2015.96 714.231 2009.15 681.063L2006.42 668.114C1989.61 690.378 1969.39 706.507 1945.76 716.503C1922.59 726.045 1896.24 730.815 1866.71 730.815C1830.81 730.815 1803.1 719.684 1783.56 697.42C1764.48 675.157 1754.93 643.124 1754.93 601.324ZM2173.87 544.075C2173.87 508.635 2180.46 477.057 2193.64 449.341C2207.27 421.171 2225.9 399.135 2249.52 383.232C2273.15 366.875 2300.18 358.697 2330.62 358.697C2353.8 358.697 2375.15 364.149 2394.69 375.054C2414.23 385.504 2428.99 400.043 2438.99 418.672V226.479H2568.48V580.878C2568.48 593.145 2570.3 601.778 2573.93 606.776C2577.57 611.319 2583.93 614.046 2593.02 614.954V724C2570.75 728.544 2552.58 730.815 2538.49 730.815C2494.42 730.815 2468.98 714.231 2462.16 681.063L2459.43 668.114C2447.17 689.923 2430.58 705.826 2409.68 715.822C2388.78 725.817 2366.52 730.815 2342.89 730.815C2310.18 730.815 2281.1 722.864 2255.66 706.962C2230.21 691.059 2210.22 669.023 2195.68 640.853C2181.14 612.683 2173.87 580.423 2173.87 544.075ZM2439.67 584.967V520.902C2433.76 505 2424.45 492.278 2411.73 482.736C2399.46 472.741 2386.51 467.743 2372.88 467.743C2354.25 467.743 2338.58 475.467 2325.85 490.915C2313.59 506.363 2307.45 524.992 2307.45 546.801C2307.45 569.064 2314.04 587.239 2327.22 601.324C2340.39 614.954 2357.43 621.77 2378.33 621.77C2402.41 621.77 2422.86 609.502 2439.67 584.967ZM2646.2 335.525V226.479H2775.69V335.525H2646.2ZM2646.2 724V365.512H2775.69V724H2646.2ZM3017.73 730.815C2975.02 730.815 2939.13 722.183 2910.05 704.917C2880.97 687.197 2858.93 664.252 2843.94 636.082C2828.94 607.912 2821.45 577.47 2821.45 544.756C2821.45 511.588 2828.94 480.919 2843.94 452.749C2858.93 424.579 2880.97 401.861 2910.05 384.595C2939.13 367.33 2975.02 358.697 3017.73 358.697C3060.44 358.697 3096.33 367.33 3125.41 384.595C3154.49 401.861 3176.53 424.579 3191.52 452.749C3206.51 480.919 3214.01 511.588 3214.01 544.756C3214.01 577.47 3206.51 607.912 3191.52 636.082C3176.53 664.252 3154.49 687.197 3125.41 704.917C3096.33 722.183 3060.44 730.815 3017.73 730.815ZM2954.35 544.756C2954.35 568.383 2960.25 587.239 2972.07 601.324C2984.33 614.954 2999.56 621.77 3017.73 621.77C3036.36 621.77 3051.58 614.954 3063.39 601.324C3075.21 587.239 3081.11 568.383 3081.11 544.756C3081.11 520.675 3075.21 501.819 3063.39 488.189C3051.58 474.558 3036.36 467.743 3017.73 467.743C2999.56 467.743 2984.33 474.558 2972.07 488.189C2960.25 501.819 2954.35 520.675 2954.35 544.756Z" fill="current"/>
</svg>
