<svg width="144" height="46" viewBox="0 0 144 46" fill="current" xmlns="http://www.w3.org/2000/svg">
<rect y="1" width="45" height="45" rx="8.1" fill="#FAFAFA"/>
<path d="M5.92442 33C5.92442 31.668 6.06358 30.5448 6.3419 29.6303C6.6401 28.7159 7.11722 27.9207 7.77326 27.2447C8.44918 26.5489 9.33384 25.9028 10.4272 25.3064C11.5008 24.7299 12.3556 24.2627 12.9918 23.9049C13.6279 23.5471 14.0951 23.2687 14.3933 23.0699C14.7114 22.8513 14.9102 22.6723 14.9897 22.5332C15.0891 22.3741 15.1388 22.2052 15.1388 22.0262C15.1388 21.5292 14.9798 21.1615 14.6617 20.9229C14.3436 20.6843 13.9062 20.5651 13.3496 20.5651C12.117 20.5651 10.8845 21.2807 9.65192 22.7121L6.07352 18.5075C6.5904 17.931 7.27626 17.434 8.1311 17.0165C9.00582 16.599 9.97 16.271 11.0236 16.0324C12.0972 15.7939 13.2005 15.6746 14.3337 15.6746C16.6 15.6746 18.3295 16.1517 19.5223 17.1059C20.7151 18.0403 21.3115 19.3524 21.3115 21.0422C21.3115 22.2747 21.0133 23.2588 20.4169 23.9944C19.8404 24.71 19.1247 25.3561 18.2699 25.9327C17.6536 26.2507 17.0075 26.5788 16.3316 26.9167C15.6557 27.2348 14.9798 27.5728 14.3038 27.9306H21.6396V33H5.92442ZM38.4471 27.9306V33H24.6404V27.9306H28.8749V21.9964C28.6363 22.2946 28.2288 22.6028 27.6523 22.9208C27.0956 23.219 26.4893 23.4775 25.8332 23.6962C25.1772 23.895 24.5907 23.9944 24.0739 23.9944V18.8057C24.3522 18.8057 24.7299 18.7063 25.207 18.5075C25.704 18.3087 26.211 18.0602 26.7278 17.762C27.2447 17.4439 27.702 17.1258 28.0996 16.8077C28.4972 16.4897 28.7556 16.2113 28.8749 15.9728H34.66V27.9306H38.4471Z" fill="#212121"/>
<path d="M57.7234 33.2982C56.3517 33.2982 54.9998 33.0795 53.6679 32.6422C52.3558 32.1849 51.2425 31.5289 50.328 30.674L52.2663 27.1851C53.2404 27.8213 54.1748 28.3183 55.0694 28.6761C55.9839 29.0339 56.8089 29.2129 57.5445 29.2129C58.3595 29.2129 58.7671 28.9743 58.7671 28.4972C58.7671 28.2387 58.5981 28.03 58.2601 27.871C57.9421 27.7119 57.4252 27.5231 56.7095 27.3044C55.4769 26.867 54.4432 26.4595 53.6082 26.0818C52.7931 25.704 52.1769 25.2468 51.7594 24.71C51.3618 24.1534 51.163 23.4178 51.163 22.5034C51.163 20.8931 51.7594 19.5711 52.9522 18.5373C54.145 17.5035 55.795 16.9867 57.9023 16.9867C58.9559 16.9867 60.0096 17.1556 61.0632 17.4936C62.1367 17.8117 63.1705 18.3981 64.1645 19.253L62.0175 22.7121C61.0235 22.0958 60.1786 21.6585 59.4828 21.4C58.8068 21.1416 58.2005 21.0124 57.6637 21.0124C56.8288 21.0124 56.4113 21.2907 56.4113 21.8473C56.4113 22.1455 56.5703 22.3741 56.8884 22.5332C57.2065 22.6922 57.7134 22.8711 58.4092 23.0699C59.7611 23.4675 60.8644 23.8751 61.7193 24.2926C62.5741 24.6902 63.2003 25.1772 63.5979 25.7537C64.0154 26.3303 64.2241 27.0857 64.2241 28.0201C64.2241 29.6701 63.6377 30.9623 62.4648 31.8967C61.3117 32.831 59.7313 33.2982 57.7234 33.2982ZM77.1993 32.1352C76.4041 32.4732 75.5493 32.7614 74.6348 33C73.7402 33.2187 72.8556 33.328 71.9808 33.328C71.126 33.328 70.3407 33.1889 69.6251 32.9105C68.9094 32.6123 68.3329 32.1352 67.8955 31.4792C67.478 30.8033 67.2693 29.8987 67.2693 28.7656V21.5789H65.331V17.3147H67.2693V12.3944H72.9351V17.3147H76.0065V21.5789H72.9351V26.7676C72.9351 27.2845 73.0444 27.6523 73.2631 27.871C73.4818 28.0698 73.78 28.1692 74.1577 28.1692C74.436 28.1692 74.7541 28.1195 75.1119 28.0201C75.4698 27.9207 75.8276 27.8014 76.1855 27.6622L77.1993 32.1352ZM78.6561 27.6324V17.3147H84.3219V26.3501C84.3219 27.0261 84.471 27.5628 84.7692 27.9604C85.0873 28.3381 85.5147 28.527 86.0514 28.527C86.4888 28.527 86.9361 28.4276 87.3933 28.2288C87.8506 28.03 88.3078 27.5926 88.7651 26.9167V17.3147H94.4309V26.7378C94.4309 27.2746 94.5104 27.6523 94.6694 27.871C94.8285 28.0698 95.1068 28.189 95.5044 28.2288V33C94.5303 33.1988 93.7351 33.2982 93.1188 33.2982C91.1904 33.2982 90.0771 32.5726 89.7789 31.1213L89.6597 30.5548C88.9241 31.5289 88.0394 32.2346 87.0057 32.672C85.9918 33.0895 84.8388 33.2982 83.5466 33.2982C81.976 33.2982 80.7634 32.8111 79.9085 31.837C79.0736 30.8629 78.6561 29.4614 78.6561 27.6324ZM96.9863 25.1275C96.9863 23.5769 97.2746 22.1952 97.8511 20.9825C98.4475 19.75 99.2626 18.7858 100.296 18.09C101.33 17.3743 102.513 17.0165 103.845 17.0165C104.859 17.0165 105.793 17.255 106.648 17.7322C107.503 18.1894 108.149 18.8256 108.586 19.6406V11.2314H114.252V26.7378C114.252 27.2746 114.332 27.6523 114.491 27.871C114.65 28.0698 114.928 28.189 115.326 28.2288V33C114.351 33.1988 113.556 33.2982 112.94 33.2982C111.012 33.2982 109.898 32.5726 109.6 31.1213L109.481 30.5548C108.944 31.509 108.219 32.2048 107.304 32.6422C106.39 33.0795 105.415 33.2982 104.382 33.2982C102.95 33.2982 101.678 32.9503 100.565 32.2545C99.4514 31.5587 98.5767 30.5945 97.9405 29.362C97.3044 28.1294 96.9863 26.7179 96.9863 25.1275ZM108.616 26.9167V24.1136C108.358 23.4178 107.95 22.8612 107.393 22.4437C106.857 22.0064 106.29 21.7877 105.694 21.7877C104.879 21.7877 104.193 22.1256 103.636 22.8016C103.099 23.4775 102.831 24.2926 102.831 25.2468C102.831 26.2209 103.119 27.0161 103.696 27.6324C104.272 28.2288 105.018 28.527 105.932 28.527C106.986 28.527 107.881 27.9902 108.616 26.9167ZM117.653 16.0026V11.2314H123.319V16.0026H117.653ZM117.653 33V17.3147H123.319V33H117.653ZM133.909 33.2982C132.04 33.2982 130.469 32.9205 129.197 32.165C127.925 31.3897 126.961 30.3858 126.304 29.1532C125.648 27.9207 125.32 26.5887 125.32 25.1573C125.32 23.7061 125.648 22.3642 126.304 21.1316C126.961 19.8991 127.925 18.9051 129.197 18.1496C130.469 17.3942 132.04 17.0165 133.909 17.0165C135.777 17.0165 137.348 17.3942 138.62 18.1496C139.892 18.9051 140.857 19.8991 141.513 21.1316C142.169 22.3642 142.497 23.7061 142.497 25.1573C142.497 26.5887 142.169 27.9207 141.513 29.1532C140.857 30.3858 139.892 31.3897 138.62 32.165C137.348 32.9205 135.777 33.2982 133.909 33.2982ZM131.135 25.1573C131.135 26.1911 131.394 27.0161 131.911 27.6324C132.447 28.2288 133.113 28.527 133.909 28.527C134.724 28.527 135.39 28.2288 135.907 27.6324C136.423 27.0161 136.682 26.1911 136.682 25.1573C136.682 24.1037 136.423 23.2787 135.907 22.6823C135.39 22.0859 134.724 21.7877 133.909 21.7877C133.113 21.7877 132.447 22.0859 131.911 22.6823C131.394 23.2787 131.135 24.1037 131.135 25.1573Z" fill="#FAFAFA"/>
</svg>
