<svg width="45" height="45" viewBox="0 0 45 45" fill="none" xmlns="http://www.w3.org/2000/svg">
<g clip-path="url(#clip0)">
<path d="M-4.52637 35.0431L3.80127 13.0298L26.047 13.4912L55.2784 54.9589L24.7052 76.511L-4.52637 35.0431Z" fill="url(#paint0_linear)" fill-opacity="0.2"/>
<path d="M37.1053 0H7.89473C3.53459 0 0 3.53459 0 7.89473V37.1053C0 41.4654 3.53459 45 7.89473 45H37.1053C41.4654 45 45 41.4654 45 37.1053V7.89473C45 3.53459 41.4654 0 37.1053 0Z" fill="url(#paint1_linear)"/>
<path fill-rule="evenodd" clip-rule="evenodd" d="M13.6625 14.2873H11.4626C10.71 14.2873 8.7997 14.4582 7.93134 14.6863V25.0074C9.66836 25.3492 11.4626 25.3492 13.6045 25.3492C16.8463 25.3492 19.5675 23.525 19.5675 20.0465C19.5675 15.3134 17.1363 14.2873 13.6625 14.2873ZM19.4518 29.1698C21.5938 30.0252 23.3884 32.3632 24.3726 34.6441L27.5563 41.9427C28.5403 44.2239 29.5243 45.3072 29.9884 45.991C29.0618 46.9608 28.3665 47.246 26.1671 47.246C23.6199 47.246 21.42 46.2762 20.3781 43.7672L17.4255 36.6969C15.631 32.4201 13.952 32.1351 11.8678 31.793C10.1313 31.5079 8.74178 31.2795 7.93134 31.2795V46.9608H5.38422C1.85295 46.9608 0 44.8506 0 41.7146V8.98453C1.67928 8.35704 7.23683 7.55859 10.1887 7.55859H14.5887C22.4619 7.55859 27.6138 12.2345 27.6138 18.7919C27.6138 24.095 24.0831 28.4858 19.4518 29.1698Z" fill="#EEEEEE"/>
</g>
<defs>
<linearGradient id="paint0_linear" x1="42.2314" y1="42.9565" x2="4.76806" y2="15.1611" gradientUnits="userSpaceOnUse">
<stop offset="0.015625" stop-color="#030C24" stop-opacity="0.81"/>
<stop offset="0.947917" stop-color="#030C24" stop-opacity="0.6"/>
</linearGradient>
<linearGradient id="paint1_linear" x1="24.126" y1="45" x2="22.5" y2="-1.99632e-06" gradientUnits="userSpaceOnUse">
<stop stop-color="#FFB213"/>
<stop offset="1" stop-color="#FF01A0"/>
</linearGradient>
<clipPath id="clip0">
<rect width="45" height="45" rx="8.1" fill="white"/>
</clipPath>
</defs>
</svg>
