<svg width="45" height="45" viewBox="0 0 45 45" fill="none" xmlns="http://www.w3.org/2000/svg">
<path d="M36.7105 0H8.28947C3.87483 0 0.296051 3.57878 0.296051 7.99342V36.4145C0.296051 40.8291 3.87483 44.4079 8.28947 44.4079H36.7105C41.1252 44.4079 44.7039 40.8291 44.7039 36.4145V7.99342C44.7039 3.57878 41.1252 0 36.7105 0Z" fill="#010209"/>
<path d="M32.5697 21.8119C32.5697 21.7306 32.5697 21.6901 32.4885 21.6495C32.0781 21.3743 31.6253 21.1685 31.1482 21.0403C31.8644 22.3011 32.4757 23.6187 32.9758 24.9798C33.3844 25.9549 33.5391 27.0177 33.4254 28.0689C33.3118 29.12 32.9335 30.1253 32.326 30.9906C31.5965 31.9778 30.6871 32.8183 29.6455 33.468C27.6961 34.7271 25.5435 35.1738 23.2692 35.255C23.1879 35.2956 23.0255 35.2144 22.9443 35.3768C22.8631 35.5393 23.6347 35.4175 24.0002 35.4986C24.6494 35.5394 25.3005 35.5394 25.9496 35.4986L27.0868 35.3363C29.2735 34.9777 31.2684 33.8726 32.7321 32.209C33.8445 31.0565 34.5073 29.5436 34.6004 27.9446C34.6363 26.6008 34.2837 25.2752 33.585 24.1269C33.1479 23.4024 32.8067 22.6242 32.5697 21.8119Z" fill="#FFD400"/>
<path d="M25.5435 26.7668C24.9749 26.8886 24.4064 27.904 24.6094 28.4726C24.8125 29.0411 24.8125 28.7975 25.0561 28.7163C25.3445 28.5807 25.5952 28.3766 25.7864 28.1217C25.9775 27.8668 26.1033 27.569 26.1527 27.2542C26.1527 26.8481 25.9496 26.645 25.5435 26.7668Z" fill="#FFD400"/>
<path d="M21.076 26.7668C20.9918 26.841 20.9315 26.9384 20.9026 27.0468C20.8737 27.1552 20.8775 27.2698 20.9135 27.376C20.9684 27.6464 21.0801 27.9021 21.2411 28.1261C21.4021 28.3501 21.6089 28.5375 21.8477 28.6756C22.2538 28.8787 22.4975 28.7163 22.4975 28.1883C22.3954 27.6701 22.1063 27.2075 21.6852 26.8886C21.6064 26.8114 21.5069 26.7588 21.3988 26.7372C21.2905 26.7156 21.1784 26.7258 21.076 26.7668Z" fill="#FFD400"/>
<path d="M25.4623 32.1685H23.7159C23.0788 32.2236 22.4372 32.1963 21.8071 32.0872C20.8146 31.793 19.8496 31.4125 18.9234 30.9501C18.7422 30.795 18.5122 30.7088 18.2737 30.7064C18.3194 30.793 18.3902 30.8637 18.4767 30.9094L19.817 32.0466C19.9989 32.2053 20.2125 32.3235 20.4435 32.3935C20.6745 32.4636 20.9178 32.4838 21.1572 32.4528C21.9148 32.4934 22.674 32.4934 23.4316 32.4528C24.1187 32.4578 24.8029 32.362 25.4623 32.1685Z" fill="#FFD400"/>
<path d="M23.3504 18.6034H23.4723C25.3849 18.6842 27.2872 18.9288 29.1582 19.3345L31.7574 19.9437C31.7168 19.6594 31.5543 19.4563 31.5543 19.1721C31.5599 19.1137 31.5472 19.055 31.5181 19.0041C31.4891 18.9533 31.4449 18.9126 31.3919 18.8878C30.9607 18.6141 30.4967 18.3958 30.011 18.2379C29.0862 17.9314 28.1343 17.7138 27.1681 17.5881C27.5339 17.5585 27.9019 17.5721 28.2646 17.6287C28.5141 17.7086 28.7743 17.7497 29.0363 17.7506C29.8079 17.9537 30.5796 18.1161 31.3512 18.4004C31.3512 18.2379 31.3107 18.1161 31.3107 17.9537C31.292 17.5816 31.1868 17.219 31.0035 16.8947C30.8202 16.5704 30.5638 16.2933 30.2547 16.0854C29.6929 15.7252 29.163 15.3176 28.6708 14.867L28.0616 14.4203C27.0522 13.7194 25.8749 13.299 24.65 13.2019H24.5282C23.8568 13.08 23.1689 13.08 22.4975 13.2019C21.6939 13.2284 20.8994 13.3791 20.1419 13.6486C19.2708 13.9022 18.4273 14.2423 17.6239 14.6639C17.4208 14.7452 17.3802 14.7045 17.3802 14.5015C17.3802 14.2984 17.3396 14.0547 17.299 13.8516C17.2266 13.2648 16.9954 12.7089 16.6305 12.2436C16.2654 11.7784 15.7804 11.4217 15.2276 11.2118C14.615 11.0335 13.9908 10.8978 13.3595 10.8056C12.0598 10.5213 10.8414 10.034 9.9479 8.89681C9.90727 8.85618 9.86664 8.77499 9.78545 8.85618C9.70425 9.66847 9.50116 10.5213 9.46053 11.3743C9.37941 11.9263 9.37941 12.4873 9.46053 13.0394C9.56592 14.537 9.92289 16.0061 10.5165 17.385C10.8477 18.2235 11.3294 18.9943 11.938 19.6594C12.1522 20.0099 12.4622 20.2917 12.8315 20.4717C12.5878 20.1062 12.3441 19.7813 12.1411 19.4157L11.8973 18.969C10.665 16.4793 10.1718 13.6887 10.4758 10.9275C10.5165 10.6838 10.5977 10.7244 10.7602 10.7651C11.84 11.3096 13.0096 11.6537 14.2123 11.7804C15.0294 11.8459 15.7946 12.2068 16.3648 12.7957C16.7356 13.3058 16.9981 13.8863 17.1365 14.5015C17.2583 15.0295 17.2583 15.0701 16.771 15.3138C16.6978 15.3357 16.6324 15.3778 16.5821 15.4353C16.5318 15.4928 16.4987 15.5633 16.4867 15.6387L17.1365 15.3949L19.289 14.7045C21.8883 13.9735 24.4469 13.7704 27.0868 14.6233H27.2087L28.3865 15.1513C28.4271 15.2325 28.5895 15.1919 28.5895 15.3544H28.3459C26.8047 14.9764 25.2213 14.7989 23.6347 14.8264C22.3695 14.7999 21.1046 14.8951 19.8576 15.1107C19.0956 15.2235 18.3471 15.414 17.6239 15.6793C16.6984 15.9318 15.8299 16.3591 15.0652 16.9383C14.9433 17.0195 14.9433 17.0195 14.9028 17.2632C15.5211 17.018 16.1598 16.8278 16.8116 16.6946L16.5679 16.8164C15.9145 17.0452 15.2769 17.3165 14.6591 17.6287C14.499 17.7059 14.3644 17.8272 14.2709 17.9783C14.1774 18.1294 14.1289 18.304 14.1311 18.4816C14.1304 18.5505 14.1547 18.6173 14.1995 18.6695C14.2444 18.7218 14.3066 18.7561 14.3748 18.7659C14.5372 18.8471 14.9028 18.6847 14.8215 19.0908C14.7403 19.497 14.8215 19.1314 14.8215 19.1314C14.9731 19.3319 15.1869 19.4765 15.4293 19.5426C15.6719 19.6087 15.9294 19.5927 16.1618 19.497C16.8165 19.2026 17.5173 19.024 18.2331 18.969C19.1592 18.8007 20.0953 18.6921 21.0354 18.644L23.3504 18.6034ZM21.5227 14.0547C21.4822 13.9735 21.3603 14.0141 21.2791 13.9329C21.1979 13.8516 21.4822 13.9735 21.5227 14.0547Z" fill="#FFD400"/>
<path d="M27.3305 26.4013C27.0975 26.1629 26.822 25.9701 26.5182 25.8328C25.8073 25.4762 25.0359 25.2558 24.2439 25.1829H23.8783C23.6939 25.121 23.4942 25.121 23.3098 25.1829H23.0255C22.8224 25.0611 22.6193 25.2641 22.3757 25.2236C21.4708 25.2208 20.5837 25.4742 19.817 25.9546C19.4978 26.0951 19.2294 26.33 19.0479 26.6277C18.8663 26.9255 18.7804 27.2716 18.8016 27.6197C18.8016 27.872 18.8603 28.1206 18.9731 28.3462C19.0859 28.5718 19.2497 28.768 19.4515 28.9194C20.3638 29.6297 21.4661 30.0537 22.6193 30.1378C23.0897 30.2188 23.5704 30.2188 24.0408 30.1378C24.2033 30.1378 24.3657 30.1783 24.4875 30.0972C25.4623 30.0565 26.965 29.2849 27.1274 28.7163C26.6988 29.0912 26.2026 29.3806 25.6653 29.5691C24.8837 29.8482 24.0585 29.9858 23.2285 29.9753C23.0222 29.8917 22.8013 29.8502 22.5787 29.8534C21.4651 29.6777 20.4313 29.1678 19.6139 28.3914C19.4025 28.197 19.2724 27.9299 19.2499 27.6436C19.2272 27.3574 19.3138 27.0731 19.4921 26.8481C19.7018 26.5441 19.98 26.2936 20.3043 26.117C21.0173 25.7656 21.7877 25.5455 22.5787 25.4672C23.8656 25.3177 25.1697 25.4564 26.3964 25.8733C26.7213 25.9952 26.965 26.3201 27.3305 26.4013Z" fill="#FFD400"/>
<path d="M35.6563 11.5367V11.2118L35.4127 9.01872C35.372 8.97809 35.4127 8.85626 35.2908 8.81563C35.1689 8.775 35.1689 8.89682 35.1284 8.97809C34.9445 9.23699 34.7258 9.46939 34.4785 9.66848C33.8839 10.084 33.2254 10.3995 32.5291 10.6026C31.4699 10.8385 30.4257 11.1368 29.4018 11.4962C29.1116 11.6107 28.8492 11.7859 28.632 12.01C28.4149 12.2341 28.2481 12.502 28.1428 12.7958C27.9889 13.1567 27.9744 13.5619 28.1022 13.933C28.1538 13.6231 28.2495 13.3221 28.3865 13.0394C28.5616 12.7704 28.788 12.5387 29.0529 12.3575C29.3177 12.1763 29.6157 12.0492 29.9298 11.9835C30.5846 11.8189 31.2493 11.6968 31.9199 11.618C32.7748 11.446 33.6064 11.1733 34.3973 10.8057C34.5192 10.7651 34.641 10.6839 34.6816 10.9275C34.8166 12.5996 34.7072 14.2825 34.3567 15.923C34.0317 17.3347 33.4686 18.6806 32.6915 19.9032C32.5327 20.1042 32.3965 20.3221 32.2854 20.5529C32.4478 20.3499 32.6915 20.2686 32.8134 20.0656C33.296 19.6318 33.7072 19.1247 34.0318 18.5629C35.0471 16.9383 35.4532 15.1107 35.6563 13.2425C35.6969 12.6739 35.6563 12.1054 35.6563 11.5367Z" fill="#FFD400"/>
<path d="M32.2854 20.553C32.2854 20.5637 32.2811 20.5741 32.2734 20.5817C32.2658 20.5893 32.2555 20.5936 32.2447 20.5936C32.2854 20.5936 32.2854 20.5936 32.2854 20.553Z" fill="#FFD400"/>
<path d="M32.0417 20.5124C32.0011 20.5531 31.9199 20.6343 31.9604 20.7155C32.0011 20.7967 32.1229 20.7967 32.2042 20.7967C32.2854 20.7967 32.1229 20.6343 32.2447 20.5937C32.3666 20.5531 32.1229 20.3906 32.0417 20.5124Z" fill="#FFD400"/>
</svg>
