<svg width="44" height="44" viewBox="0 0 44 44" fill="none" xmlns="http://www.w3.org/2000/svg">
<g clip-path="url(#clip0)">
<path d="M41.58 2.42035C39.9669 0.806885 38.0235 0 35.7511 0H8.25091C5.97855 0 4.03508 0.806885 2.42131 2.42035C0.807846 4.03412 0.000961304 5.97749 0.000961304 8.24995V35.7498C0.000961304 38.0221 0.807846 39.9657 2.42131 41.5794C4.03508 43.1932 5.97855 44.0001 8.25091 44.0001H35.7508C38.0232 44.0001 39.9666 43.1932 41.5797 41.5794C43.1935 39.9657 44.0004 38.0222 44.0004 35.7498V8.24995C44.0003 5.97749 43.1934 4.03382 41.58 2.42035ZM33.6598 16.9298C33.6789 17.1017 33.6886 17.3591 33.6886 17.7034C33.6886 19.3076 33.4545 20.9166 32.9868 22.5299C32.5192 24.1439 31.8029 25.6908 30.8381 27.1707C29.8743 28.6505 28.7236 29.9591 27.387 31.0953C26.05 32.231 24.4461 33.1386 22.5742 33.816C20.7031 34.4945 18.6976 34.8337 16.5589 34.8337C13.2362 34.8337 10.1616 33.9355 7.33506 32.1411C7.79339 32.1981 8.27108 32.2269 8.76733 32.2269C11.5365 32.2269 14.0287 31.3676 16.2441 29.6483C14.9457 29.6298 13.7853 29.2291 12.7637 28.4452C11.7418 27.6623 11.0307 26.6694 10.6295 25.4662C11.1259 25.5425 11.4982 25.5803 11.7464 25.5803C12.1665 25.5803 12.6537 25.5041 13.2073 25.3517C11.8133 25.0839 10.639 24.3923 9.68408 23.275C8.729 22.1577 8.25161 20.8831 8.25161 19.4509V19.3936C9.26348 19.8707 10.2184 20.1189 11.116 20.1383C9.37816 18.9731 8.50927 17.3024 8.50927 15.1253C8.50927 14.0558 8.78599 13.0437 9.33983 12.0888C10.8484 13.9414 12.6821 15.4212 14.8397 16.5288C16.9976 17.6363 19.3086 18.2572 21.772 18.3908C21.6767 18.028 21.6288 17.5695 21.6288 17.0158C21.6288 15.3541 22.2161 13.9364 23.3907 12.7618C24.5649 11.5873 25.983 10.9998 27.6442 10.9998C29.4016 10.9998 30.8628 11.6302 32.0276 12.8907C33.3454 12.6425 34.6255 12.1552 35.8664 11.4298C35.3891 12.8999 34.5005 14.0172 33.2025 14.7812C34.4435 14.609 35.5985 14.2845 36.6678 13.8071C35.8658 15.0293 34.8629 16.0701 33.6598 16.9298Z" fill="#FAFAFA"/>
</g>
<defs>
<clipPath id="clip0">
<rect width="44" height="44" fill="white"/>
</clipPath>
</defs>
</svg>
